<svg width="22" height="22" viewBox="0 0 22 22" fill="white" xmlns="http://www.w3.org/2000/svg">
<path fill-rule="evenodd" clip-rule="evenodd" d="M15.8315 9.83521L17.4167 8.25C17.8063 7.86037 18.0011 7.66555 18.1239 7.46653C18.5208 6.82291 18.5208 6.01043 18.1239 5.36681C18.0011 5.16779 17.8063 4.97297 17.4167 4.58334C17.027 4.1937 16.8322 3.99888 16.6332 3.87614C15.9896 3.47919 15.1771 3.47919 14.5335 3.87614C14.3345 3.99888 14.1397 4.1937 13.75 4.58334L12.1439 6.18949C13.0243 7.70489 14.2957 8.96655 15.8315 9.83521ZM10.6893 7.64401L4.52306 13.8103L4.52305 13.8103C4.098 14.2354 3.88547 14.4479 3.74574 14.709C3.606 14.9701 3.54706 15.2648 3.42917 15.8543L2.8971 18.5146C2.83058 18.8472 2.79732 19.0135 2.89193 19.1081C2.98654 19.2027 3.15284 19.1694 3.48545 19.1029L6.14577 18.5709C6.73522 18.453 7.02994 18.394 7.29104 18.2543C7.55214 18.1145 7.76467 17.902 8.18973 17.477L14.3732 11.2935C12.8885 10.3603 11.6315 9.11191 10.6893 7.64401Z" fill="#D5D5D5"/>
</svg>
